HIERARCHY
ROOT Hips
{
	OFFSET 0.000000 0.000000 0.000000 
	CHANNELS 6 Xposition Yposition Zposition Yrotation Zrotation Xrotation 
	JOINT Lumbar
	{
		OFFSET 0.000000 0.000000 0.000000 
		CHANNELS 3 Zrotation Xrotation Yrotation
		JOINT Neck
		{
			OFFSET 0.000000 0.445665 0.000000 
			CHANNELS 3 Zrotation Xrotation Yrotation
			End Site
			{
				OFFSET 0.000000 0.227535 0.000000 
			}
		}
		JOINT RightShoulder
		{
			OFFSET 0.019635 0.377685 0.194865 
			CHANNELS 3 Zrotation Xrotation Yrotation
			JOINT RightElbow
			{
				OFFSET 0.000000 -0.243375 0.000000 
				CHANNELS 2 Zrotation Yrotation
				JOINT RightWrist
				{
					OFFSET 0.000000 -0.264825 0.000000 
					CHANNELS 2 Zrotation Xrotation
					End Site
					{
						OFFSET 0.006600 -0.176220 0.000990 
					}
				}
			}
		}
		JOINT LeftShoulder
		{
			OFFSET 0.019635 0.377685 -0.194865 
			CHANNELS 3 Zrotation Xrotation Yrotation
			JOINT LeftElbow
			{
				OFFSET 0.000000 -0.243375 0.000000 
				CHANNELS 2 Zrotation Yrotation
				JOINT LeftWrist
				{
					OFFSET 0.000000 -0.264825 0.000000 
					CHANNELS 2 Zrotation Xrotation
					End Site
					{
						OFFSET 0.006600 -0.176220 -0.000990 
					}
				}
			}
		}
	}
	JOINT RightHip
	{
		OFFSET 0.052140 -0.069960 0.075570 
		CHANNELS 3 Zrotation Xrotation Yrotation
		JOINT RightKnee
		{
			OFFSET 0.000000 -0.402270 0.000000 
			CHANNELS 1 Zrotation
			JOINT RightAnkle
			{
				OFFSET 0.000000 -0.404085 0.000000 
				CHANNELS 3 Zrotation Xrotation Yrotation
				End Site
				{
					OFFSET 0.204105 -0.089430 0.008415 
				}
			}
		}
	}
	JOINT LeftHip
	{
		OFFSET 0.052140 -0.069960 -0.075570 
		CHANNELS 3 Zrotation Xrotation Yrotation
		JOINT LeftKnee
		{
			OFFSET 0.000000 -0.402270 0.000000 
			CHANNELS 1 Zrotation
			JOINT LeftAnkle
			{
				OFFSET 0.000000 -0.404085 0.000000 
				CHANNELS 3 Zrotation Xrotation Yrotation
				End Site
				{
					OFFSET 0.204105 -0.089430 -0.008415 
				}
			}
		}
	}
}
MOTION
Frames: 17
Frame Time: 0.02
1.58819 0.9421 0.08384 524.59638 0 -0.54487 2.43797 -0.60717 4.54252 -52.09906 -2.53809 3.74406 62.27962 -53.19127 -12.75532 21.3286 96.49567 -8.11569 -9.39855 38.43225 16.58264 13.18937 8.90549 -78.12141 -3.01874 0.8355 4.05813 0.38397 10.46597 -52.14168 -16.24776 -1.45241 -2.44681 2.88456 -1.29186 14.9844 -2.93878 -8.80158 2.01984 6.82777
1.57526 0.94334 0.08734 524.65284 0 -0.8325 2.46044 -0.51809 3.59404 -53.09662 -1.5996 4.59611 65.3961 -54.47537 -5.81624 22.21302 100.7431 -10.03312 -9.74568 40.7198 16.05385 11.76479 9.52927 -78.3849 -3.15442 1.64777 6.00032 0.59509 9.49144 -54.35364 -15.70901 -1.46131 -3.65958 2.5038 -1.32284 14.80298 -3.44969 -8.26111 2.10956 7.08125
1.5629 0.94482 0.09017 524.95445 0 -1.23943 2.52334 -0.38301 2.2595 -54.38585 -0.16813 5.99992 69.65137 -56.61102 3.27999 23.55995 105.32794 -12.16175 -10.06745 43.30334 14.81911 10.77015 10.15862 -78.69947 -3.29091 2.46805 7.77596 1.04509 8.48999 -55.84437 -14.47273 -1.52484 -5.694 2.17467 -1.21054 14.31209 -3.97057 -7.61099 2.21498 7.38574
1.5503 0.94619 0.09326 525.14842 0 -1.59572 2.56946 -0.26031 1.11017 -55.51889 1.03741 7.13155 73.34923 -58.31213 11.22884 24.7817 109.28817 -13.96327 -10.38647 45.71281 13.93425 9.57909 10.78516 -78.98511 -3.42698 3.27702 9.61026 1.39299 7.51406 -57.57798 -13.57601 -1.56064 -7.32101 1.81937 -1.15678 13.97576 -4.47913 -7.0141 2.31175 7.65145
1.5376 0.94758 0.09654 525.33219 0 -1.94051 2.60562 -0.16986 -0.08614 -56.75573 2.25739 8.35559 77.22632 -60.22156 19.90822 25.67077 115.17888 -16.7231 -10.7741 48.29914 12.92582 8.35087 11.4192 -79.29923 -3.56135 4.12593 11.53311 1.71652 6.46085 -59.69065 -12.5879 -1.60853 -9.08358 1.47867 -1.12953 13.58741 -5.02181 -6.39629 2.41547 7.97876
1.52526 0.94897 0.09927 525.59198 0 -2.33452 2.67297 -0.00346 -1.27187 -57.8416 3.55722 9.51422 80.98733 -61.89316 27.55811 27.34485 117.22085 -17.56379 -11.00497 50.58307 12.01193 7.31425 12.03606 -79.56554 -3.70007 4.89006 13.22449 2.14415 5.57135 -60.83004 -11.62572 -1.6445 -10.75778 1.11803 -1.01528 13.2316 -5.49399 -5.79882 2.50819 8.19201
1.51372 0.95038 0.10062 526.018 0 -2.85578 2.82131 0.37031 -2.36119 -58.46977 5.01408 10.39704 84.25756 -62.73951 31.96092 31.16647 107.67529 -12.80513 -10.86978 51.96567 11.47574 6.75049 12.60957 -79.67404 -3.85214 5.42498 14.32947 2.82866 5.12855 -59.51225 -10.8718 -1.63135 -12.03888 0.69644 -0.67394 13.0375 -5.78515 -5.2808 2.56709 8.07133
1.50253 0.95177 0.10144 526.50893 0 -3.41824 2.99918 0.81683 -3.42108 -58.92986 6.52309 11.18792 87.34904 -63.30894 35.2248 35.74041 94.39319 -6.15382 -10.56852 53.03108 11.06833 6.36278 13.1636 -79.73416 -4.00847 5.87191 15.20215 3.60432 4.85661 -57.22717 -10.17317 -1.60483 -13.19455 0.25123 -0.25408 12.8863 -6.0018 -4.78861 2.61418 7.83565
1.49121 0.95312 0.10251 526.95819 0 -3.94833 3.16105 1.2238 -4.47602 -59.44703 7.97108 11.99485 90.45413 -63.97876 38.93166 39.90882 83.40994 -0.53043 -10.29984 54.23662 10.63892 5.8681 13.72233 -79.82465 -4.16229 6.35381 16.17193 4.32008 4.51708 -55.34787 -9.47084 -1.5863 -14.37579 -0.1878 0.11571 12.71731 -6.24241 -4.28778 2.66645 7.65768
1.4798 0.95468 0.10355 527.46534 0 -4.54082 3.33552 1.6599 -5.62149 -60.05688 9.59541 12.9291 93.89393 -64.78673 43.04329 44.37006 69.95367 5.79582 -10.20086 55.47044 10.03326 5.49874 14.29954 -79.88249 -4.31897 6.85783 17.17465 5.12268 4.13351 -53.58807 -8.65482 -1.56166 -15.71934 -0.60516 0.5517 12.53148 -6.52627 -3.76981 2.72033 7.45924
1.46866 0.95578 0.10452 527.86677 0 -5.01081 3.48978 2.05189 -6.56682 -60.42876 10.85646 13.56979 96.56745 -65.229 45.99535 48.38426 60.69238 11.10793 -9.72252 56.56515 9.83132 4.90809 14.83273 -79.99508 -4.47015 7.29409 18.05229 5.76231 3.88302 -51.35699 -8.09656 -1.54577 -16.6829 -1.07468 0.86602 12.39363 -6.70086 -3.29528 2.76752 7.27446
1.45818 0.95565 0.10543 527.93738 0 -5.1383 3.58497 2.30499 -6.9607 -60.19297 11.1162 13.41421 97.26489 -64.73484 46.16695 51.05708 64.48293 13.17568 -8.12401 57.35842 10.74209 3.63447 15.25558 -80.27964 -4.61007 7.57025 18.66942 5.93335 3.95488 -48.08125 -8.25106 -1.55738 -16.63667 -1.67605 0.82983 12.38929 -6.6046 -2.93366 2.80167 7.16382
1.44795 0.95504 0.10627 527.90323 0 -5.13941 3.65783 2.51081 -7.15331 -59.72039 11.00382 12.9652 97.17451 -63.87759 45.17514 53.23542 72.52174 14.15354 -6.1708 58.01926 12.05192 2.13559 15.63354 -80.61922 -4.74356 7.78041 19.16354 5.93514 4.15467 -44.36512 -8.66435 -1.57771 -16.20654 -2.33012 0.66727 12.43067 -6.39946 -2.61552 2.82889 7.06889
1.4376 0.95461 0.10714 527.92979 0 -5.1939 3.7382 2.73758 -7.44007 -59.34938 11.04911 12.65302 97.37494 -63.17764 44.60898 55.58945 78.24721 15.62078 -4.45429 58.73707 13.16439 0.75651 16.02775 -80.92719 -4.87648 8.01679 19.69725 6.01098 4.29941 -40.84024 -8.95248 -1.59403 -15.94241 -2.96509 0.55827 12.44566 -6.23466 -2.27856 2.85758 6.96134
1.42733 0.95433 0.10802 527.90001 0 -5.26692 3.83097 2.96921 -7.71484 -58.9985 11.1428 12.323 97.85015 -62.49811 44.43201 58.18449 85.44708 17.18496 -2.41291 59.46136 14.35196 -0.69044 16.43879 -81.26055 -5.02352 8.26501 20.29448 6.10299 4.44081 -37.31596 -9.27183 -1.61111 -15.71052 -3.58217 0.46685 12.4875 -6.10208 -1.93863 2.89314 6.8738
1.41692 0.95364 0.10887 527.96618 0 -5.2709 3.89193 3.17851 -7.967 -58.55125 11.04914 11.96197 97.57252 -61.69713 43.19222 60.14093 90.64742 18.25623 -0.96647 60.14003 15.47189 -2.05099 16.80438 -81.55576 -5.14052 8.47535 20.72964 6.11898 4.61264 -33.70195 -9.58967 -1.62759 -15.32142 -4.24647 0.30976 12.48142 -5.88223 -1.61466 2.91268 6.74876
1.40613 0.95192 0.10974 528.28499 0 -5.11383 3.87293 3.3375 -8.20595 -57.8994 10.50553 11.58333 95.37001 -60.61679 39.22201 60.52692 89.19765 18.28533 -1.24631 60.76596 16.34556 -3.12737 17.05492 -81.7234 -5.16736 8.58582 20.7796 5.9742 4.8773 -29.92904 -9.81642 -1.65187 -14.59608 -5.04759 -0.01511 12.35189 -5.40796 -1.32636 2.89169 6.52594
